<svg width="40" height="40" viewBox="0 0 300 300" fill="none" xmlns="http://www.w3.org/2000/svg" class="primary">
<g clip-path="url(#clip0_2_4)">
<rect width="300" height="300"/>
<g filter="url(#filter0_d_2_4)">
<path d="M56.8965 178.512C56.8965 170.553 56.9941 164.547 57.1895 160.494C57.3848 156.393 57.8975 150.387 58.7275 142.477L50.3047 141.378C49.2793 138.204 48.5957 135.372 48.2539 132.882C47.9609 130.392 47.8145 127.169 47.8145 123.214C48.5957 122.53 49.8896 121.725 51.6963 120.797C53.5518 119.82 55.7246 118.99 58.2148 118.307C60.7539 117.574 63.3174 117.208 65.9053 117.208C71.8135 117.208 75.9883 118.478 78.4297 121.017C80.9199 123.556 82.165 127.364 82.165 132.442C82.165 135.274 81.75 139.107 80.9199 143.941C79.5527 151.705 78.8691 155.782 78.8691 156.173C78.8691 156.417 79.04 156.661 79.3818 156.905C79.7236 157.101 80.0898 157.198 80.4805 157.198C80.9199 157.198 81.2129 157.027 81.3594 156.686C81.3105 156.881 81.8721 154.415 83.0439 149.288C84.46 142.55 85.9004 137.057 87.3652 132.809C88.8789 128.561 91.2715 124.923 94.543 121.896C97.8145 118.868 102.258 117.354 107.873 117.354C114.807 117.354 119.812 119.356 122.888 123.36C125.964 127.315 127.502 132.589 127.502 139.181C127.502 144.405 126.623 150.216 124.865 156.612C124.865 156.856 125.036 157.101 125.378 157.345C125.72 157.54 126.086 157.638 126.477 157.638C126.916 157.638 127.209 157.467 127.355 157.125L128.381 153.023C130.139 145.797 131.872 139.791 133.581 135.006C135.339 130.221 137.951 126.095 141.418 122.628C144.934 119.112 149.499 117.354 155.114 117.354C162.487 117.354 167.785 119.723 171.008 124.459C174.279 129.195 175.915 135.152 175.915 142.33C175.915 147.408 175.427 152.511 174.45 157.638C173.522 162.765 172.521 167.062 171.447 170.528C170.422 173.995 169.152 177.999 167.639 182.54L167.785 182.687L178.625 178.146C182.434 181.417 184.655 185.763 185.29 191.183C185.29 191.524 184.191 192.94 181.994 195.431C179.797 197.872 176.892 200.167 173.278 202.315C169.714 204.415 165.612 205.465 160.974 205.465C156.335 205.465 152.551 204.22 149.621 201.729C146.691 199.239 145.227 194.991 145.227 188.985C145.227 182.296 145.349 175.436 145.593 168.404C145.886 161.324 146.301 154.977 146.838 149.361C146.008 148.678 144.86 148.312 143.396 148.263C141.931 149.679 140.1 152.779 137.902 157.564C135.705 162.301 133.679 167.379 131.823 172.799C129.968 178.17 128.796 182.369 128.308 185.396C128.991 190.182 130.041 194.918 131.457 199.605C130.578 201.266 128.771 202.657 126.037 203.78C123.303 204.903 119.934 205.465 115.93 205.465C112.316 205.465 109.484 205.172 107.434 204.586C105.383 204 103.967 203.39 103.186 202.755C102.453 202.12 102.087 201.705 102.087 201.51C102.038 201.07 101.916 199.923 101.721 198.067C101.525 196.163 101.33 193.526 101.135 190.157C100.939 186.739 100.842 182.857 100.842 178.512C100.842 174.361 101.159 169.161 101.794 162.911C101.843 162.13 101.989 160.274 102.233 157.345C102.478 154.415 102.6 151.754 102.6 149.361C101.77 148.678 100.622 148.312 99.1572 148.263C98.3271 148.897 96.0078 152.95 92.1992 160.421C88.3906 167.892 85.8516 173.165 84.582 176.241C84.4844 176.925 84.4355 177.584 84.4355 178.219C84.4355 180.66 84.8018 183.956 85.5342 188.106C86.2666 192.208 87.1699 196.041 88.2441 199.605C87.3652 201.266 85.5586 202.657 82.8242 203.78C80.0898 204.903 76.7207 205.465 72.7168 205.465C69.1035 205.465 66.1982 205.172 64.001 204.586C61.8525 204 60.3389 203.39 59.46 202.755C58.5811 202.071 58.1416 201.656 58.1416 201.51C58.0928 201.07 57.9707 199.923 57.7754 198.067C57.5801 196.163 57.3848 193.526 57.1895 190.157C56.9941 186.739 56.8965 182.857 56.8965 178.512ZM197.009 178.146C201.306 179.854 204.748 181.173 207.336 182.101C209.924 183.028 212.756 183.834 215.832 184.518C218.957 185.201 222.058 185.543 225.134 185.543C226.501 185.543 227.478 185.421 228.063 185.177C228.21 184.981 228.332 184.688 228.43 184.298C228.576 183.858 228.649 183.419 228.649 182.979C228.649 182.003 228.088 181.197 226.965 180.562C225.207 179.586 222.082 178.048 217.59 175.948C211.438 173.019 206.555 170.406 202.941 168.111C199.377 165.816 196.35 162.765 193.859 158.956C191.418 155.147 190.197 150.362 190.197 144.601C190.197 136.349 192.663 129.732 197.595 124.752C202.526 119.723 210.339 117.208 221.032 117.208C233.776 117.208 243.688 118.868 250.769 122.188C251.11 123.604 251.281 125.387 251.281 127.535C251.281 131.637 250.646 135.836 249.377 140.133C248.107 144.381 246.447 147.53 244.396 149.581C241.613 148.653 237.683 147.164 232.604 145.113C228.894 143.648 225.939 142.525 223.742 141.744C221.594 140.914 219.616 140.328 217.81 139.986C216.833 140.23 216.052 140.816 215.466 141.744C214.88 142.623 214.587 143.673 214.587 144.894C214.587 145.968 214.904 146.871 215.539 147.604C216.174 148.336 216.882 148.922 217.663 149.361C218.493 149.752 219.665 150.289 221.179 150.973C221.96 151.314 222.692 151.632 223.376 151.925C224.06 152.169 224.694 152.413 225.28 152.657C229.089 154.269 232.092 155.587 234.289 156.612C236.486 157.638 238.61 158.858 240.661 160.274C244.421 162.862 247.375 165.816 249.523 169.137C251.672 172.457 252.746 176.095 252.746 180.05C252.746 185.519 251.184 190.255 248.059 194.259C244.982 198.214 241.027 201.095 236.193 202.901C233.654 203.829 230.871 204.488 227.844 204.879C224.865 205.318 221.374 205.538 217.37 205.538C212.634 205.538 207.751 204.635 202.722 202.828C197.741 200.973 193.933 197.896 191.296 193.6C191.345 190.621 191.735 188.033 192.468 185.836C193.249 183.59 194.763 181.026 197.009 178.146Z" fill="currentColor"/>
</g>
</g>
<defs>
<filter id="filter0_d_2_4" x="47.8145" y="117.208" width="214.932" height="103.33" filterUnits="userSpaceOnUse" color-interpolation-filters="sRGB">
<feFlood flood-opacity="0" result="BackgroundImageFix"/>
<feColorMatrix in="SourceAlpha" type="matrix" values="0 0 0 0 0 0 0 0 0 0 0 0 0 0 0 0 0 0 127 0" result="hardAlpha"/>
<feOffset dx="5" dy="10"/>
<feGaussianBlur stdDeviation="2.5"/>
<feComposite in2="hardAlpha" operator="out"/>
<feColorMatrix type="matrix" values="0 0 0 0 0 0 0 0 0 0 0 0 0 0 0 0 0 0 0.25 0"/>
<feBlend mode="normal" in2="BackgroundImageFix" result="effect1_dropShadow_2_4"/>
<feBlend mode="normal" in="SourceGraphic" in2="effect1_dropShadow_2_4" result="shape"/>
</filter>
<clipPath id="clip0_2_4">
<rect width="300" height="300" rx="20"/>
</clipPath>
</defs>
</svg>
